<svg width="33" height="33" viewBox="0 0 33 33" fill="none" xmlns="http://www.w3.org/2000/svg">
<path fill-rule="evenodd" clip-rule="evenodd" d="M4.71429 0C3.46398 0 2.26488 0.496682 1.38078 1.38078C0.496682 2.26488 0 3.46398 0 4.71429V28.2857C0 29.536 0.496682 30.7351 1.38078 31.6192C2.26488 32.5033 3.46398 33 4.71429 33H28.2857C29.536 33 30.7351 32.5033 31.6192 31.6192C32.5033 30.7351 33 29.536 33 28.2857V4.71429C33 3.46398 32.5033 2.26488 31.6192 1.38078C30.7351 0.496682 29.536 0 28.2857 0H4.71429ZM7.31186 10.1286C8.05892 10.1286 8.77538 9.83187 9.30363 9.30363C9.83187 8.77538 10.1286 8.05892 10.1286 7.31186C10.1286 6.5648 9.83187 5.84834 9.30363 5.32009C8.77538 4.79184 8.05892 4.49507 7.31186 4.49507C6.5648 4.49507 5.84834 4.79184 5.32009 5.32009C4.79184 5.84834 4.49507 6.5648 4.49507 7.31186C4.49507 8.05892 4.79184 8.77538 5.32009 9.30363C5.84834 9.83187 6.5648 10.1286 7.31186 10.1286ZM9.669 27.8449V12.3373H4.95471V27.8449H9.669ZM12.7993 12.3373H17.5136V14.4139C18.2089 13.3249 19.7364 11.8588 22.5767 11.8588C25.9663 11.8588 27.8072 14.1051 27.8072 18.3786C27.8072 18.5837 27.8261 19.5195 27.8261 19.5195V27.8426H23.1118V19.5219C23.1118 18.3786 22.8714 16.1323 20.3304 16.1323C17.787 16.1323 17.5725 18.9561 17.5136 20.8041V27.8426H12.7993V12.3373Z" fill="#FFBB1C"/>
</svg>
